HIERARCHY
ROOT Hips
{
	OFFSET 0.000000 0.000000 0.000000
	CHANNELS 6 Xposition Yposition Zposition Zrotation Yrotation Xrotation 
	JOINT LHipJoint
	{
		OFFSET 0.000000 0.000000 0.000000
		CHANNELS 3 Zrotation Yrotation Xrotation
		JOINT LeftUpLeg
		{
			OFFSET 1.363060 -1.794630 0.839290
			CHANNELS 3 Zrotation Yrotation Xrotation
			JOINT LeftLeg
			{
				OFFSET 2.448110 -6.726130 0.000000
				CHANNELS 3 Zrotation Yrotation Xrotation
				JOINT LeftFoot
				{
					OFFSET 2.562200 -7.039590 0.000000
					CHANNELS 3 Zrotation Yrotation Xrotation
					JOINT LeftToeBase
					{
						OFFSET 0.157640 -0.433110 2.322550
						CHANNELS 3 Zrotation Yrotation Xrotation
						End Site
						{
							OFFSET 0.000000 0.000000 0.000000
						}
					}
				}
			}
		}
	}
	JOINT RHipJoint
	{
		OFFSET 0.000000 0.000000 0.000000
		CHANNELS 3 Zrotation Yrotation Xrotation
		JOINT RightUpLeg
		{
			OFFSET -1.305520 -1.794630 0.839290
			CHANNELS 3 Zrotation Yrotation Xrotation
			JOINT RightLeg
			{
				OFFSET -2.542530 -6.985550 0.000000
				CHANNELS 3 Zrotation Yrotation Xrotation
				JOINT RightFoot
				{
					OFFSET -2.568260 -7.056230 0.000000
					CHANNELS 3 Zrotation Yrotation Xrotation
					JOINT RightToeBase
					{
						OFFSET -0.164730 -0.452590 2.363150
						CHANNELS 3 Zrotation Yrotation Xrotation
						End Site
						{
							OFFSET 0.000000 0.000000 0.000000
						}
					}
				}
			}
		}
	}
}
MOTION
Frames: 25
Frame Time: 0.008333
3.316186 17.210074 1.139671 -178.338276 -71.554019 -171.232174 -11.805428 1.841291 -1.646811 -4.975003 28.136061 -12.673936 -2.923649 -1.207890 -1.064076 0.982676 8.256795 -0.057152 1.091100 0.000000 -35.751500 9.309638 -1.943431 4.057070 0.769317 3.544015 -11.184134 2.624820 1.473031 -4.329377 0.568182 2.721390 4.340474 0.021500 -0.000000 -43.709400
3.319383 17.212123 1.143891 -178.292062 -71.294643 -171.291607 -11.817169 1.851353 -1.658592 -4.976543 28.290448 -12.710135 -2.927821 -1.204902 -1.000662 0.993880 8.342091 -0.079358 1.097301 -0.000000 -35.710500 9.293584 -1.965708 4.134702 0.734221 3.786628 -11.100848 2.631030 1.495920 -4.650995 0.586546 2.763194 4.618464 0.032300 -0.000001 -43.664700
3.324185 17.214440 1.148570 -178.270028 -71.059489 -171.355893 -11.831462 1.865254 -1.666243 -4.970945 28.437299 -12.712825 -2.930541 -1.203170 -0.963617 1.002369 8.416610 -0.075135 1.106300 0.000000 -35.678501 9.277770 -1.991407 4.207870 0.699663 4.004882 -11.003688 2.635847 1.515481 -4.948232 0.603464 2.795410 4.889061 0.041100 0.000000 -43.628100
3.330681 17.217017 1.153534 -178.268833 -70.857216 -171.430728 -11.848279 1.882200 -1.669289 -4.953812 28.568141 -12.670255 -2.930287 -1.203326 -0.963057 1.008425 8.485093 -0.038540 1.119699 -0.000000 -35.654000 9.260955 -2.017899 4.272489 0.669755 4.204501 -10.964761 2.636479 1.518577 -5.048720 0.613326 2.810942 5.053390 0.045700 0.000000 -43.598600
3.339238 17.219728 1.158744 -178.281744 -70.692620 -171.525780 -11.867328 1.901924 -1.667771 -4.921026 28.680037 -12.580940 -2.926548 -1.204564 -0.999070 1.011955 8.545142 0.029073 1.137000 -0.000001 -35.636100 9.242385 -2.040462 4.322032 0.652172 4.378816 -11.043121 2.632011 1.495610 -4.814257 0.613106 2.814594 5.032035 0.046501 -0.000000 -43.572901
3.349928 17.222468 1.164136 -178.295499 -70.563848 -171.646698 -11.887954 1.925044 -1.663456 -4.871560 28.770815 -12.451131 -2.919500 -1.204710 -1.070352 1.013423 8.594533 0.124033 1.157400 0.000000 -35.624500 9.225517 -2.060534 4.356795 0.647431 4.509897 -11.069150 2.627419 1.474737 -4.613061 0.611003 2.799039 5.026781 0.043000 -0.000001 -43.551000
3.362774 17.225149 1.169614 -178.296772 -70.472807 -171.798872 -11.908800 1.950924 -1.657117 -4.804758 28.833621 -12.287169 -2.908850 -1.202436 -1.177953 1.013449 8.633381 0.243348 1.180400 -0.000000 -35.617500 9.211224 -2.073031 4.370825 0.661721 4.587859 -11.048870 2.623710 1.456307 -4.437592 0.607212 2.765926 5.032153 0.035400 -0.000000 -43.534700
3.377636 17.227659 1.175073 -178.269032 -70.425164 -171.984431 -11.927690 1.977742 -1.650444 -4.723900 28.863460 -12.106782 -2.895416 -1.196669 -1.317265 1.011954 8.655683 0.382160 1.204500 -0.000000 -35.614700 9.200733 -2.073079 4.359214 0.700604 4.605276 -10.997245 2.621663 1.440642 -4.277850 0.601456 2.714102 5.040244 0.023200 -0.000000 -43.527200
3.394003 17.229983 1.180439 -178.194948 -70.429591 -172.200349 -11.942356 2.002861 -1.645246 -4.633877 28.852648 -11.928661 -2.880137 -1.187389 -1.485598 1.008796 8.656186 0.535890 1.228201 0.000000 -35.615900 9.195542 -2.057139 4.317463 0.768327 4.554361 -10.933517 2.621795 1.427638 -4.122096 0.593421 2.643261 5.043068 0.006000 0.000000 -43.534199
3.411322 17.232098 1.185642 -178.061777 -70.495023 -172.440398 -11.951034 2.023881 -1.642404 -4.542133 28.795787 -11.775573 -2.864460 -1.174980 -1.677988 1.003400 8.627127 0.700339 1.249700 -0.000000 -35.621300 9.196626 -2.023140 4.243161 0.866988 4.429609 -10.880318 2.624503 1.417230 -3.957743 0.582810 2.553037 5.033186 -0.016100 0.000000 -43.561300
3.428970 17.234207 1.190664 -177.867289 -70.623601 -172.693648 -11.953277 2.041000 -1.638633 -4.457682 28.684318 -11.664853 -2.849000 -1.159922 -1.893471 0.995835 8.567098 0.874964 1.268600 -0.000001 -35.629100 9.203857 -1.970397 4.137119 0.995116 4.229341 -10.858276 2.630069 1.409658 -3.773154 0.569543 2.443088 5.006396 -0.043501 0.000000 -43.613200
3.446209 17.236386 1.195560 -177.615127 -70.807470 -172.949965 -11.949924 2.057565 -1.628156 -4.389709 28.520981 -11.613556 -2.835133 -1.141912 -2.124323 0.985603 8.469147 1.055525 1.282900 -0.000000 -35.641800 9.216031 -1.899399 4.004109 1.148291 3.956547 -10.884122 2.639013 1.405808 -3.556831 0.554080 2.315106 4.959312 -0.075999 -0.000000 -43.693700
3.462478 17.238783 1.200436 -177.321030 -71.029739 -173.196377 -11.942121 2.079050 -1.603498 -4.346937 28.309622 -11.630530 -2.823355 -1.120199 -2.365028 0.973000 8.333338 1.240504 1.291900 0.000000 -35.659900 9.231901 -1.810849 3.851171 1.318494 3.619347 -10.968754 2.651474 1.406582 -3.300374 0.537224 2.172209 4.891849 -0.113100 -0.000000 -43.805199
3.476960 17.241633 1.205335 -177.001327 -71.268549 -173.417370 -11.930799 2.111082 -1.557962 -4.337975 28.055688 -11.721535 -2.813926 -1.094178 -2.609809 0.958728 8.163903 1.429778 1.295500 0.000000 -35.681000 9.250559 -1.706333 3.687019 1.496145 3.232021 -11.119451 2.667225 1.412868 -3.001816 0.519866 2.017364 4.809152 -0.154200 0.000000 -43.946000
3.489100 17.245079 1.210250 -176.682045 -71.501654 -173.594504 -11.916392 2.157791 -1.487707 -4.369539 27.770515 -11.887984 -2.807343 -1.063683 -2.849004 0.943357 7.965467 1.620102 1.293600 -0.000000 -35.705700 9.271607 -1.588571 3.521590 1.669779 2.813418 -11.338495 2.685372 1.425027 -2.663985 0.502891 1.855224 4.715546 -0.198301 -0.000000 -44.113001
3.498243 17.249137 1.215023 -176.399457 -71.713324 -173.705130 -11.900080 2.222570 -1.387802 -4.447414 27.466537 -12.123058 -2.803952 -1.030109 -3.074284 0.927526 7.747170 1.809263 1.286800 -0.000000 -35.732800 9.294001 -1.464580 3.369354 1.825515 2.383236 -11.620397 2.704360 1.442715 -2.295981 0.487241 1.692711 4.616348 -0.243500 0.000000 -44.302000
3.503611 17.253931 1.219351 -176.203707 -71.905402 -173.724526 -11.885092 2.308275 -1.247125 -4.576692 27.155275 -12.415315 -2.804259 -0.997420 -3.276073 0.911580 7.521251 1.996050 1.277100 0.000000 -35.758500 9.313748 -1.349645 3.256026 1.948509 1.963112 -11.953035 2.721909 1.465010 -1.915342 0.473266 1.533614 4.518683 -0.288700 0.000000 -44.503500
3.504710 17.259510 1.222868 -176.146095 -72.106107 -173.628473 -11.875566 2.411721 -1.058450 -4.760052 26.847928 -12.753300 -2.810176 -0.972813 -3.440198 0.894639 7.296878 2.178334 1.266400 -0.000000 -35.776500 9.325102 -1.265647 3.210240 2.024851 1.574030 -12.320599 2.734896 1.489411 -1.547022 0.460159 1.377488 4.429153 -0.333100 0.000000 -44.705500
3.501558 17.265735 1.225365 -176.246681 -72.332569 -173.387711 -11.871857 2.515761 -0.848265 -4.990049 26.549766 -13.113811 -2.823087 -0.962869 -3.562838 0.876593 7.090940 2.354830 1.258100 0.000000 -35.783600 9.328057 -1.221721 3.226993 2.046170 1.236876 -12.709079 2.740588 1.511202 -1.217776 0.446828 1.228564 4.352642 -0.374500 0.000000 -44.898000
3.494796 17.272400 1.226928 -176.486011 -72.540062 -172.985342 -11.870646 2.603235 -0.660459 -5.254254 26.278377 -13.486791 -2.843018 -0.964598 -3.632021 0.859268 6.918497 2.513691 1.253199 -0.000000 -35.777700 9.327327 -1.204379 3.273991 2.013242 0.982591 -13.110560 2.739167 1.528583 -0.946901 0.432950 1.089797 4.296427 -0.411700 -0.000000 -45.069400
3.485689 17.279076 1.227877 -176.853634 -72.656909 -172.445236 -11.871824 2.674066 -0.515304 -5.530849 26.055917 -13.828990 -2.865504 -0.969437 -3.649564 0.847257 6.806385 2.645176 1.254399 0.000000 -35.759500 9.325621 -1.197148 3.329076 1.926031 0.830376 -13.487256 2.731876 1.541745 -0.739740 0.421212 0.976503 4.266897 -0.442000 0.000000 -45.214200
3.475435 17.285403 1.228280 -177.331629 -72.646581 -171.817104 -11.876121 2.732948 -0.412581 -5.802813 25.902046 -14.113660 -2.887646 -0.971682 -3.607463 0.843399 6.768212 2.735855 1.262100 -0.000000 -35.729000 9.322400 -1.194547 3.391416 1.787388 0.790360 -13.805796 2.719566 1.551433 -0.598154 0.413471 0.896916 4.265233 -0.464000 0.000000 -45.327000
3.464971 17.291034 1.228174 -177.887217 -72.503799 -171.153816 -11.882554 2.779955 -0.353283 -6.054958 25.820560 -14.316905 -2.906731 -0.969529 -3.507433 0.849585 6.816509 2.780001 1.277900 0.000000 -35.684900 9.318631 -1.195072 3.458956 1.602036 0.861534 -14.042527 2.702212 1.556677 -0.522695 0.410356 0.855840 4.289227 -0.476500 0.000000 -45.406400
3.455052 17.295627 1.227478 -178.478290 -72.237209 -170.502008 -11.888644 2.812785 -0.339551 -6.277224 25.807120 -14.431785 -2.921157 -0.962658 -3.351565 0.866467 6.954723 2.772140 1.301800 -0.000000 -35.627100 9.316340 -1.197031 3.525864 1.379015 1.034863 -14.190834 2.680247 1.556632 -0.508379 0.411700 0.854995 4.331583 -0.478701 0.000000 -45.456500
3.445964 17.298768 1.226197 -179.056598 -71.865373 -169.897031 -11.891521 2.828047 -0.374462 -6.464135 25.850805 -14.465221 -2.930542 -0.952099 -3.143571 0.893288 7.175656 2.707704 1.331900 -0.000000 -35.556400 9.318112 -1.198477 3.582268 1.130823 1.292663 -14.259418 2.654847 1.550898 -0.544842 0.416969 0.894944 4.381313 -0.469900 0.000000 -45.485000
